<?xml version="1.0" standalone="no"?>
<!DOCTYPE svg PUBLIC "-//W3C//DTD SVG 20010904//EN"
 "http://www.w3.org/TR/2001/REC-SVG-20010904/DTD/svg10.dtd">
<svg version="1.0" xmlns="http://www.w3.org/2000/svg"
 width="386.000000pt" height="386.000000pt" viewBox="0 0 386.000000 386.000000"
 preserveAspectRatio="xMidYMid meet">
<metadata>
Created by potrace 1.14, written by Peter Selinger 2001-2017
</metadata>
<g transform="translate(0.000000,386.000000) scale(0.100000,-0.100000)"
fill="#000000" stroke="none">
<path d="M1540 3758 c-11 -12 -20 -26 -20 -32 0 -5 -9 -19 -20 -30 -10 -12
-26 -48 -35 -81 -13 -50 -13 -68 -3 -110 6 -27 14 -42 16 -33 7 36 41 -21 48
-79 3 -30 -2 -29 -20 5 -8 15 -15 22 -16 15 0 -17 22 -63 30 -63 4 0 13 -15
21 -32 37 -94 133 -187 319 -313 108 -74 250 -198 250 -219 0 -6 16 -27 36
-47 49 -51 69 -145 42 -204 -13 -30 -22 -31 -46 -7 -10 9 -39 31 -65 49 -39
27 -53 47 -91 127 -101 216 -207 314 -408 377 -85 27 -108 30 -161 25 -122
-14 -222 -52 -268 -102 -14 -16 -43 -44 -64 -63 -34 -31 -37 -37 -32 -75 17
-145 166 -290 361 -352 136 -43 345 -28 522 36 32 12 67 24 76 27 21 6 144
-88 153 -117 4 -11 11 -20 16 -20 10 0 7 -33 -8 -83 -4 -15 0 -17 22 -11 25 6
27 5 20 -17 -4 -13 -13 -31 -20 -39 -7 -8 -18 -43 -25 -78 -7 -34 -17 -65 -21
-68 -9 -5 -52 20 -84 49 -50 47 -183 123 -245 142 -14 4 -38 13 -55 20 -139
59 -340 85 -498 65 -56 -7 -124 -19 -152 -26 -45 -13 -46 -14 -10 -9 22 3 76
10 120 15 44 5 87 11 95 12 55 8 282 -18 375 -44 71 -19 287 -122 306 -145 7
-7 17 -13 24 -13 6 0 35 -24 63 -54 29 -30 58 -56 65 -59 14 -5 -19 -47 -38
-47 -7 0 -46 33 -87 74 -78 77 -112 93 -168 81 -16 -4 -40 -17 -52 -31 -13
-13 -31 -24 -40 -24 -9 0 -19 -4 -23 -9 -3 -6 -18 -16 -33 -24 -15 -7 -37 -20
-49 -27 -12 -8 -25 -12 -28 -8 -7 6 52 68 65 68 4 0 13 7 21 16 7 8 29 24 50
34 52 27 57 48 17 82 -18 15 -46 30 -63 34 -16 3 -35 10 -40 15 -11 8 -235 40
-245 34 -3 -1 -34 -6 -69 -9 -35 -3 -67 -8 -71 -11 -4 -2 -10 -32 -14 -64 -4
-33 -11 -63 -15 -65 -5 -3 -6 -16 -4 -30 6 -27 -13 -44 -30 -27 -9 9 -9 14 -1
19 18 12 24 113 8 145 -17 31 -18 31 -154 16 -87 -10 -100 -14 -100 -30 0 -21
-26 -26 -33 -6 -5 16 -63 -4 -60 -21 2 -8 -14 -12 -45 -13 -26 -1 -39 -3 -29
-6 19 -5 23 -29 6 -35 -17 -6 -1 -46 21 -53 10 -3 32 -18 47 -33 44 -44 186
-202 208 -233 28 -39 65 -59 91 -49 32 12 35 23 36 105 1 45 6 82 14 93 11 14
13 0 13 -87 -1 -83 3 -107 16 -120 15 -15 18 -14 33 4 19 21 120 93 162 115
l25 12 -22 -21 c-12 -11 -25 -21 -29 -21 -6 0 -27 -16 -101 -78 -59 -49 -31
-80 44 -51 15 6 54 11 86 10 37 -1 56 3 52 9 -4 6 15 11 49 12 31 1 68 3 84 5
104 12 146 15 140 8 -4 -4 -24 -7 -44 -7 -21 0 -48 -7 -61 -15 -16 -11 -38
-14 -68 -10 -25 2 -48 1 -51 -4 -3 -5 -29 -9 -57 -9 -29 0 -87 -7 -129 -17
-69 -15 -78 -20 -78 -40 0 -12 6 -25 13 -30 8 -5 2 -9 -18 -13 -26 -5 -30 -10
-28 -35 1 -15 6 -31 10 -34 5 -3 24 -31 44 -61 20 -30 45 -68 55 -84 10 -16
24 -36 29 -45 6 -9 22 -34 36 -57 16 -25 28 -61 31 -92 5 -52 25 -89 39 -75 5
5 3 25 -3 46 -12 40 -8 53 17 44 10 -4 15 -19 15 -45 0 -44 8 -56 26 -41 9 7
19 7 30 1 12 -7 29 -4 58 9 23 10 52 19 65 19 13 0 40 12 58 26 32 24 36 25
51 10 21 -21 4 -39 -38 -38 -16 0 -30 -4 -30 -9 0 -5 -6 -9 -12 -9 -7 0 -32
-13 -54 -28 -23 -16 -68 -34 -100 -41 -33 -7 -66 -19 -74 -26 -13 -10 -74 -24
-295 -66 -55 -11 -310 -13 -390 -3 -77 9 -244 41 -297 58 -57 17 -121 53 -167
95 -19 17 -39 31 -45 31 -14 0 -58 47 -75 78 -7 13 -15 21 -18 18 -3 -3 1 -16
10 -30 14 -21 14 -26 2 -36 -11 -9 -18 -4 -34 27 -11 22 -27 45 -35 52 -9 8
-16 20 -16 29 0 12 6 10 25 -8 14 -13 27 -22 29 -19 7 7 -13 49 -24 49 -5 0
-10 9 -10 20 0 11 -7 23 -16 27 -10 3 -14 13 -11 25 3 11 0 39 -8 63 -9 33
-11 65 -4 127 10 90 47 220 61 212 4 -3 8 1 8 9 0 8 11 26 25 41 14 15 25 31
25 36 0 5 9 11 19 15 11 3 22 12 25 20 10 27 -9 16 -56 -32 -47 -49 -97 -143
-118 -221 -20 -76 -11 -292 12 -292 6 0 8 -14 6 -32 -17 -110 154 -445 292
-574 125 -117 299 -233 400 -267 55 -19 111 -46 128 -64 28 -27 252 -116 350
-139 160 -36 458 -96 592 -119 80 -13 183 -33 230 -44 47 -11 128 -27 180 -36
52 -9 115 -20 140 -25 91 -19 211 -30 440 -40 231 -10 750 -12 883 -2 l67 4 0
154 0 154 -27 6 c-16 3 -39 9 -53 14 -14 5 -45 12 -70 16 -25 3 -51 11 -57 16
-7 6 -27 8 -43 6 -25 -4 -30 -2 -24 11 14 32 16 81 4 81 -25 0 -95 -24 -112
-38 -10 -8 -24 -12 -33 -9 -8 4 -14 1 -12 -6 1 -7 -9 -11 -25 -10 -16 1 -28
-2 -28 -8 0 -5 -7 -9 -15 -9 -8 0 -15 -5 -15 -11 0 -7 -9 -9 -21 -6 -12 3 -32
-1 -45 -9 -27 -18 -59 -15 -59 6 0 10 12 16 35 18 19 2 54 12 78 23 24 11 60
27 82 35 66 27 88 85 53 145 -17 28 -49 47 -60 35 -8 -8 -33 42 -33 65 0 10
-23 37 -52 60 -85 67 -112 92 -149 141 -39 51 -97 103 -105 95 -3 -3 3 -13 14
-23 10 -11 25 -35 32 -54 8 -19 25 -45 38 -56 21 -19 23 -24 12 -45 -25 -47
-50 -51 -50 -8 0 29 -2 31 -27 25 -16 -4 -37 -8 -47 -10 -11 -1 -22 -9 -25
-17 -8 -25 -31 -41 -48 -34 -15 5 -15 7 -3 15 21 13 18 130 -3 142 -9 5 -13
16 -10 28 7 26 -15 52 -38 45 -20 -7 -37 14 -20 25 9 5 8 10 -4 20 -12 10 -15
10 -15 -4 0 -18 -15 -22 -25 -6 -3 6 -17 10 -31 10 -27 0 -32 15 -9 24 9 3 15
18 15 35 0 18 9 38 22 51 l22 20 -32 0 c-22 0 -32 5 -32 15 0 8 7 15 15 15 19
0 19 11 1 35 -13 18 -14 18 -43 -3 -20 -14 -38 -19 -53 -15 -23 6 -22 7 16 40
37 32 38 33 17 39 -19 5 -23 13 -23 45 0 22 -4 39 -9 39 -8 0 -41 31 -111 105
-43 45 -72 63 -78 46 -2 -6 -10 -11 -18 -11 -8 0 -14 -5 -14 -11 0 -7 11 -8
31 -4 19 4 29 3 26 -2 -4 -6 5 -15 18 -21 28 -13 33 -40 10 -48 -8 -4 -12 -10
-9 -15 14 -23 -94 2 -119 28 -5 4 -50 8 -100 9 -93 1 -171 17 -195 39 -10 9
-6 11 20 9 18 -1 53 -8 78 -14 55 -14 60 -14 134 0 33 6 62 7 65 2 3 -5 15
-12 26 -15 20 -7 20 -7 1 8 -14 10 -15 15 -6 15 9 0 10 3 5 9 -9 9 -61 20
-180 40 -42 6 -56 33 -21 39 11 3 16 0 12 -7 -4 -6 -2 -12 3 -12 6 -1 17 -2
24 -3 6 -1 22 2 34 8 17 7 27 5 41 -7 23 -21 136 -25 130 -5 -2 6 -20 14 -39
16 -43 5 -46 8 -31 32 14 22 16 47 5 52 -5 2 -21 22 -36 46 -16 25 -32 40 -39
36 -7 -5 -8 -3 -4 5 10 16 -22 51 -40 44 -10 -4 -12 0 -8 11 4 10 0 18 -10 22
-9 4 -16 18 -16 34 0 32 -18 42 -60 34 -25 -6 -29 -10 -24 -30 7 -26 -5 -31
-24 -12 -9 9 -16 7 -32 -7 -11 -10 -17 -22 -13 -28 3 -6 1 -7 -6 -3 -6 4 -14
0 -17 -8 -3 -9 -12 -16 -19 -16 -21 0 -28 -19 -14 -36 18 -22 -3 -40 -23 -20
-19 18 -33 9 -16 -11 8 -10 8 -17 0 -25 -9 -9 -7 -17 9 -34 13 -14 17 -24 10
-29 -6 -3 -11 1 -11 9 0 25 -20 19 -30 -10 -13 -34 -13 -34 15 -34 14 0 25 -4
25 -9 0 -4 -11 -6 -25 -3 -18 3 -25 0 -25 -12 0 -9 7 -19 15 -22 22 -9 18 -33
-7 -44 -22 -8 -21 -9 7 -11 18 -1 23 -3 13 -6 -10 -2 -18 -11 -18 -19 0 -8 -5
-14 -11 -14 -6 0 -9 7 -5 15 3 8 1 15 -4 15 -6 0 -10 -4 -10 -9 0 -5 -3 -16
-6 -25 -5 -12 1 -16 22 -17 27 -1 27 -2 -8 -12 -31 -9 -38 -15 -38 -36 0 -29
6 -39 34 -61 12 -9 17 -10 12 -2 -5 8 0 12 13 12 12 0 21 5 21 10 0 6 7 10 17
10 27 0 -12 -37 -54 -51 -26 -8 -33 -15 -28 -28 4 -9 9 -25 12 -36 3 -11 7
-27 11 -35 8 -21 8 -21 17 -55 13 -53 33 -75 65 -75 17 0 30 -4 30 -10 0 -5
-7 -10 -15 -10 -20 0 -19 -13 4 -41 l19 -24 19 24 c12 14 25 21 32 17 8 -5 5
-15 -10 -34 -17 -22 -18 -28 -6 -30 23 -5 147 51 147 66 0 6 6 12 14 12 7 0
24 8 37 19 13 10 35 22 49 26 14 4 28 12 32 18 4 7 12 6 22 -3 20 -16 17 -18
-94 -77 -117 -62 -145 -78 -150 -84 -3 -3 -13 -8 -22 -12 -19 -7 -24 -42 -8
-52 6 -3 10 -15 10 -27 0 -11 8 -22 19 -25 12 -3 17 -11 14 -22 -4 -18 57
-103 106 -149 43 -39 126 -74 157 -66 19 5 25 3 20 -4 -15 -24 68 -118 113
-129 14 -3 35 -12 46 -19 11 -8 32 -14 46 -14 15 0 29 -4 31 -9 2 -4 40 -11
86 -15 l83 -7 29 31 29 32 23 -25 c31 -33 61 -47 99 -47 18 0 29 -3 26 -7 -4
-3 -2 -12 4 -20 14 -16 13 -16 -131 -14 -132 2 -268 24 -325 53 -16 8 -43 18
-59 22 -37 9 -106 63 -106 82 0 17 -17 19 -23 2 -12 -36 -187 102 -187 148 0
8 -8 14 -18 14 -10 0 -28 11 -40 25 -12 14 -26 25 -31 25 -5 0 -23 24 -39 52
-16 29 -42 64 -56 77 -14 14 -26 33 -26 43 0 10 -5 18 -11 18 -5 0 -17 15 -25
33 -9 17 -23 46 -32 62 -8 17 -28 64 -43 105 -15 41 -37 100 -49 130 -13 30
-23 65 -22 78 0 17 -6 22 -24 22 -25 0 -33 27 -14 46 10 10 40 134 46 189 5
52 16 89 41 134 12 24 23 49 23 55 0 6 23 37 50 68 50 56 113 99 164 112 33 8
34 26 2 26 -14 0 -27 3 -29 8 -3 4 6 40 19 80 14 39 31 114 39 166 16 109 30
165 55 221 10 22 21 51 24 65 3 14 18 44 33 68 31 48 53 53 111 23 123 -61
320 -52 482 22 50 23 150 88 191 124 14 13 34 30 45 38 18 14 17 16 -21 50
-22 20 -65 48 -95 63 -52 25 -64 27 -190 27 -143 0 -136 1 -255 -62 -38 -20
-207 -191 -200 -202 4 -7 -16 -21 -30 -21 -12 0 37 119 102 248 l77 153 -19
36 c-31 56 -47 61 -89 29 -42 -32 -78 -97 -100 -182 -23 -88 -44 -247 -36
-263 13 -24 -7 -80 -41 -120 -40 -46 -59 -51 -59 -15 0 25 -29 85 -74 151
l-24 34 34 94 c53 149 76 281 72 410 -3 102 -5 114 -35 166 -59 101 -206 219
-305 244 -59 15 -224 35 -292 35 -34 0 -50 -6 -66 -22z m17 -410 c-3 -7 -5 -2
-5 12 0 14 2 19 5 13 2 -7 2 -19 0 -25z m1383 -426 c0 -20 -46 -69 -56 -59 -8
8 34 77 47 77 5 0 9 -8 9 -18z m-525 -9 c-2 -10 -4 -19 -4 -21 -1 -2 -6 0 -11
3 -8 5 -7 11 1 21 15 18 18 18 14 -3z m421 -39 c-4 -13 -13 -24 -21 -24 -21 0
-19 39 3 63 15 17 17 18 20 2 2 -9 1 -27 -2 -41z m-116 21 c0 -9 -7 -29 -15
-45 -12 -23 -22 -30 -45 -30 -38 0 -38 13 2 56 35 36 58 44 58 19z m-190 -82
c0 -17 -16 -30 -42 -37 -39 -9 -41 -9 -44 9 -1 8 2 13 7 9 5 -3 19 2 31 10 24
17 48 21 48 9z m-1498 -575 c32 -32 34 -36 30 -94 -3 -54 -7 -63 -28 -73 -14
-6 -26 -11 -27 -11 -1 0 -3 14 -4 30 -2 24 2 30 17 30 11 0 20 1 20 3 0 18
-33 107 -39 107 -5 0 -11 9 -14 20 -7 28 5 25 45 -12z m-132 7 c20 -24 6 -28
-15 -5 -10 11 -13 20 -8 20 6 0 16 -7 23 -15z m54 -71 c21 -21 20 -29 -4 -31
-15 -1 -20 4 -20 23 0 28 3 29 24 8z m203 -60 c-9 -9 -28 6 -21 18 4 6 10 6
17 -1 6 -6 8 -13 4 -17z m-39 -79 c6 -30 -20 -36 -40 -9 -11 13 -17 28 -13 33
9 15 49 -3 53 -24z m1152 -65 c0 -11 -4 -20 -9 -20 -5 0 -7 9 -4 20 3 11 7 20
9 20 2 0 4 -9 4 -20z m40 -71 c0 -5 -7 -9 -15 -9 -15 0 -20 12 -9 23 8 8 24
-1 24 -14z m148 -127 c2 -7 -3 -12 -12 -12 -9 0 -16 7 -16 16 0 17 22 14 28
-4z m-280 -27 c23 -37 28 -55 13 -55 -5 0 -15 14 -23 30 -7 17 -21 30 -30 30
-18 0 -23 11 -11 23 13 14 29 6 51 -28z m-758 -44 c0 -12 -28 -22 -34 -12 -3
5 -3 11 1 15 9 9 33 7 33 -3z m260 -71 c55 -10 80 -19 80 -31 0 -4 18 -14 40
-20 22 -7 40 -16 40 -22 0 -10 -72 0 -80 12 -11 17 -128 53 -172 53 -27 0 -48
4 -48 9 0 9 59 18 80 11 8 -3 35 -8 60 -12z m-157 -66 c12 -4 17 -16 17 -44 0
-21 -4 -41 -9 -44 -12 -8 -2 -53 15 -67 8 -6 14 -17 14 -24 0 -18 -48 -25 -61
-9 -7 9 -8 14 -1 14 6 0 13 -6 16 -12 13 -29 -15 132 -29 165 -4 9 -16 17 -26
17 -10 0 -19 5 -19 11 0 10 31 7 83 -7z m-64 -56 c14 -16 20 -28 13 -28 -16 0
-42 29 -42 47 0 9 1 14 3 12 1 -2 13 -16 26 -31z m1181 13 c-14 -27 -13 -31 9
-31 21 0 51 -25 51 -42 0 -18 -50 1 -82 31 l-31 29 29 15 c16 8 30 15 32 16 1
1 -2 -8 -8 -18z m-480 -11 c0 -5 -9 -10 -21 -10 -11 0 -17 5 -14 10 3 6 13 10
21 10 8 0 14 -4 14 -10z m-346 -29 c3 -5 -1 -12 -10 -15 -21 -8 -65 4 -58 15
7 12 61 12 68 0z m-164 -31 c0 -5 -4 -10 -10 -10 -5 0 -10 5 -10 10 0 6 5 10
10 10 6 0 10 -4 10 -10z m981 -25 c-1 -15 -24 -12 -29 3 -3 9 2 13 12 10 10
-1 17 -7 17 -13z m-271 -10 c0 -8 -7 -15 -15 -15 -8 0 -15 7 -15 15 0 8 7 15
15 15 8 0 15 -7 15 -15z m368 3 c-6 -18 -28 -21 -28 -4 0 9 7 16 16 16 9 0 14
-5 12 -12z m-393 -40 c1 -16 -20 -38 -35 -38 -7 0 -25 -8 -42 -17 -28 -17 -30
-17 -44 2 -14 18 -13 20 6 23 11 2 20 9 19 15 -4 32 3 46 24 49 27 4 72 -17
72 -34z m-690 12 c3 -5 1 -10 -4 -10 -6 0 -11 -12 -11 -27 0 -17 -4 -23 -9
-17 -11 10 -3 64 10 64 4 0 11 -4 14 -10z m765 -30 c0 -5 -7 -10 -15 -10 -8 0
-15 5 -15 10 0 6 7 10 15 10 8 0 15 -4 15 -10z m-350 -10 c0 -5 -7 -10 -15
-10 -8 0 -15 5 -15 10 0 6 7 10 15 10 8 0 15 -4 15 -10z m30 -11 c0 -6 -4 -7
-10 -4 -5 3 -10 11 -10 16 0 6 5 7 10 4 6 -3 10 -11 10 -16z m-390 1 c0 -5 -4
-10 -10 -10 -5 0 -10 5 -10 10 0 6 5 10 10 10 6 0 10 -4 10 -10z m485 -20 c0
-10 -12 -16 -32 -18 -28 -3 -33 0 -33 18 0 18 5 21 33 18 20 -2 32 -8 32 -18z
m421 9 c10 -17 -13 -36 -27 -22 -12 12 -4 33 11 33 5 0 12 -5 16 -11z m-221
-18 c8 -14 -9 -21 -65 -28 -32 -4 -50 -2 -50 5 0 22 102 43 115 23z m335 -11
c0 -5 -4 -10 -10 -10 -5 0 -10 -8 -10 -19 0 -13 -7 -18 -27 -18 -15 0 -29 -6
-31 -12 -2 -6 -11 -11 -20 -12 -10 0 -12 -3 -5 -5 7 -3 21 -1 31 5 16 8 21 7
26 -4 6 -17 -13 -27 -121 -67 l-63 -23 -1 -65 c-1 -36 -3 -57 -6 -47 -2 9 -11
17 -18 17 -15 0 -83 -35 -99 -51 -14 -13 -26 -11 -26 5 0 7 29 33 65 56 51 34
66 48 70 74 7 33 49 66 85 66 9 0 23 7 30 15 10 13 9 15 -9 15 -42 0 -23 21
59 64 49 25 80 32 80 16z m76 -6 c-3 -9 -6 -22 -6 -30 0 -8 -7 -14 -15 -14
-15 0 -21 40 -8 53 13 14 35 7 29 -9z m-711 -24 c3 -5 1 -10 -4 -10 -6 0 -11
5 -11 10 0 6 2 10 4 10 3 0 8 -4 11 -10z m155 0 c0 -5 -4 -10 -10 -10 -5 0
-10 5 -10 10 0 6 5 10 10 10 6 0 10 -4 10 -10z m120 -25 c0 -3 -12 -10 -26
-15 -20 -8 -24 -15 -19 -31 7 -20 6 -20 -18 -4 -20 13 -30 14 -47 5 -21 -11
-40 -6 -40 11 0 5 10 9 23 9 13 0 27 4 33 9 5 5 25 11 44 14 19 2 38 5 43 5 4
1 7 0 7 -3z m375 -56 c4 -6 5 -12 2 -15 -7 -7 -37 7 -37 17 0 13 27 11 35 -2z
m-86 -35 c-14 -18 -24 -11 -15 11 3 9 11 13 16 10 8 -5 7 -11 -1 -21z m-394 6
c3 -5 -1 -10 -10 -10 -9 0 -13 5 -10 10 3 6 8 10 10 10 2 0 7 -4 10 -10z m350
-79 c-8 -25 -45 -49 -45 -29 0 13 41 60 48 54 2 -3 1 -14 -3 -25z m165 19 c0
-5 9 -10 20 -10 20 0 20 -1 5 -31 -16 -29 -17 -30 -35 -14 -20 18 -40 13 -40
-11 0 -8 -4 -14 -10 -14 -5 0 -10 6 -10 14 0 8 5 18 10 21 6 3 10 15 10 25 0
18 12 28 38 29 6 1 12 -3 12 -9z m-400 -41 c0 -5 -7 -9 -15 -9 -15 0 -20 12
-9 23 8 8 24 -1 24 -14z m369 -115 c-9 -11 -14 -11 -26 2 -12 12 -13 17 -2 30
12 14 14 14 26 -2 9 -13 10 -21 2 -30z m-159 27 c0 -5 -7 -11 -14 -14 -10 -4
-13 -1 -9 9 6 15 23 19 23 5z m-180 -51 c0 -23 -5 -30 -19 -30 -31 0 -36 21
-10 41 31 24 29 24 29 -11z m-351 -64 c31 -56 115 -165 136 -178 7 -4 20 -19
28 -32 l16 -24 -37 4 c-20 2 -82 8 -137 13 -105 10 -150 17 -200 28 -33 8 -44
10 -62 12 -23 2 -14 16 27 41 22 14 72 62 112 107 40 46 76 83 80 83 3 0 20
-24 37 -54z m1056 34 c-3 -5 -10 -10 -16 -10 -5 0 -9 5 -9 10 0 6 7 10 16 10
8 0 12 -4 9 -10z m-595 -15 c0 -22 -34 -65 -50 -65 -27 0 -25 12 6 44 25 24
44 33 44 21z m540 -65 c0 -5 -2 -10 -4 -10 -3 0 -8 5 -11 10 -3 6 -1 10 4 10
6 0 11 -4 11 -10z m-400 -51 c0 -13 -39 -41 -49 -34 -15 9 -14 32 2 38 17 6
47 4 47 -4z m210 -174 c0 -8 -4 -15 -10 -15 -5 0 -10 7 -10 15 0 8 5 15 10 15
6 0 10 -7 10 -15z"/>
<path d="M968 2363 c7 -3 16 -2 19 1 4 3 -2 6 -13 5 -11 0 -14 -3 -6 -6z"/>
<path d="M868 2343 c6 -2 18 -2 25 0 6 3 1 5 -13 5 -14 0 -19 -2 -12 -5z"/>
<path d="M790 2320 c0 -5 7 -7 15 -4 8 4 15 8 15 10 0 2 -7 4 -15 4 -8 0 -15
-4 -15 -10z"/>
<path d="M748 2303 c6 -2 18 -2 25 0 6 3 1 5 -13 5 -14 0 -19 -2 -12 -5z"/>
<path d="M660 2275 c-16 -9 -19 -14 -9 -15 8 0 19 4 25 9 5 5 18 11 29 14 l20
5 -20 0 c-11 1 -31 -5 -45 -13z"/>
<path d="M600 2250 c-8 -5 -10 -10 -5 -10 6 0 17 5 25 10 8 5 11 10 5 10 -5 0
-17 -5 -25 -10z"/>
<path d="M519 2202 c-48 -28 -199 -149 -199 -159 0 -3 7 1 17 8 9 8 17 12 19
9 1 -3 19 11 41 31 21 19 52 44 68 55 17 10 35 22 40 27 6 4 25 19 44 32 47
33 27 31 -30 -3z"/>
<path d="M705 2181 c8 -16 21 -31 30 -34 18 -8 20 -47 3 -47 -22 0 -36 14 -43
41 -10 41 -46 55 -95 39 -40 -13 -54 -30 -24 -30 9 0 14 -7 12 -17 -4 -22 -28
-29 -28 -9 0 23 -37 20 -50 -3 -7 -14 -6 -21 3 -24 9 -3 9 -8 -2 -18 -11 -12
-15 -11 -24 3 -10 15 -17 11 -59 -34 -26 -28 -48 -57 -48 -64 0 -14 22 -24 54
-24 13 0 68 -11 122 -24 54 -13 121 -27 149 -31 27 -4 62 -13 77 -21 15 -8 40
-14 57 -14 16 0 32 -4 35 -8 3 -5 24 -8 48 -7 24 1 48 -2 53 -6 16 -12 148
-24 144 -13 -26 55 -47 84 -77 104 -35 23 -82 66 -82 75 0 2 -28 30 -62 62
-35 32 -78 74 -98 94 -27 29 -43 37 -73 37 l-37 1 15 -28z m95 -86 c0 -27 -9
-32 -27 -14 -9 9 -8 15 0 25 18 20 27 17 27 -11z m-170 6 c0 -14 -18 -23 -30
-16 -6 4 -8 11 -5 16 8 12 35 12 35 0z m185 -81 c3 -6 3 -15 0 -20 -10 -16
-45 8 -45 31 0 16 3 18 19 9 11 -5 23 -15 26 -20z m95 0 c-8 -5 -19 -10 -25
-10 -5 0 -3 5 5 10 8 5 20 10 25 10 6 0 3 -5 -5 -10z"/>
<path d="M348 1933 c0 -5 -2 -15 -2 -23 -1 -10 -10 -14 -30 -12 -17 2 -25 -1
-21 -7 3 -6 -5 -26 -18 -43 -49 -67 -71 -193 -34 -202 7 -2 28 -8 48 -15 41
-13 122 0 149 23 8 7 33 13 55 14 38 0 39 0 13 -10 -16 -5 -28 -14 -28 -18 0
-5 -16 -12 -35 -16 -19 -3 -38 -10 -41 -15 -3 -5 -22 -9 -43 -9 -21 0 -52 -7
-70 -16 -32 -16 -33 -17 -28 -73 6 -68 17 -112 31 -126 31 -30 77 -55 113 -61
46 -7 60 5 42 34 -7 11 -9 27 -5 37 5 14 9 15 21 5 8 -7 15 -19 15 -26 0 -21
19 -17 56 11 18 14 37 25 42 25 5 0 16 8 25 18 9 9 37 28 64 42 26 14 50 27
53 30 3 3 42 23 88 45 99 47 118 65 103 94 -15 27 4 37 25 12 13 -15 22 -17
47 -10 33 9 97 50 97 62 0 10 -138 -1 -161 -13 -9 -5 -74 -14 -145 -19 -93 -7
-130 -14 -136 -24 -6 -12 -14 -11 -50 7 l-43 21 50 5 c28 3 55 8 60 12 6 4 53
10 105 13 52 4 115 11 140 16 25 5 63 12 85 15 22 4 48 13 58 22 29 25 1 41
-85 48 -43 4 -75 10 -73 15 6 9 -95 40 -107 33 -4 -3 -17 0 -30 7 -22 12 -239
58 -290 62 -15 1 -30 6 -34 10 -10 9 -74 9 -76 0z m172 -323 c0 -5 -9 -10 -20
-10 -11 0 -20 5 -20 10 0 6 9 10 20 10 11 0 20 -4 20 -10z m-70 -25 c0 -12
-64 -65 -79 -65 -11 0 -21 -5 -23 -11 -2 -5 -11 -7 -21 -3 -28 11 -14 28 31
38 29 7 42 15 42 27 0 19 18 29 38 21 6 -2 12 -5 12 -7z m178 -2 c5 -17 -26
-29 -40 -15 -6 6 -7 15 -3 22 9 14 37 9 43 -7z m82 -18 c0 -8 -4 -16 -9 -19
-5 -3 -8 5 -7 18 1 25 16 26 16 1z m-200 -50 c13 -16 12 -17 -35 -21 -16 -1
-37 -4 -45 -6 -8 -1 -17 2 -20 7 -3 6 12 11 33 13 20 2 37 7 37 13 0 14 16 11
30 -6z m-116 -62 c-5 -5 -12 -12 -15 -16 -3 -5 -9 -2 -12 7 -5 12 0 16 15 16
12 0 17 -3 12 -7z"/>
<path d="M1218 1834 c-3 -3 -3 -24 0 -47 l5 -41 -26 17 c-14 9 -36 17 -47 17
-11 0 -23 7 -26 15 -4 8 -11 12 -16 9 -6 -4 -5 -10 3 -15 11 -6 11 -11 1 -21
-18 -18 -15 -48 6 -54 9 -4 31 -12 49 -20 54 -24 71 -19 75 23 2 30 9 39 35
52 34 17 43 31 20 31 -8 0 -22 9 -32 20 -18 20 -36 25 -47 14z"/>
<path d="M1078 1647 c-7 -6 -38 -23 -68 -37 -67 -29 -81 -40 -52 -40 42 0 16
-30 -43 -51 -22 -7 -47 -19 -56 -27 -13 -10 -18 -10 -21 -1 -3 8 -11 10 -23 5
-17 -6 -17 -9 -5 -17 11 -8 8 -9 -13 -4 -21 4 -27 3 -21 -6 5 -9 2 -10 -9 -6
-12 5 -17 1 -17 -13 0 -11 -4 -20 -9 -20 -5 0 -11 -8 -13 -17 -2 -10 -12 -18
-23 -19 -11 0 -39 -1 -62 -2 l-43 -2 22 -25 c12 -14 28 -25 35 -25 7 0 13 -7
13 -15 0 -22 -28 -18 -42 5 -13 20 -58 28 -58 11 0 -5 -8 -7 -18 -4 -10 2 -24
-3 -31 -11 -8 -9 -19 -16 -26 -16 -27 0 -25 -32 2 -60 37 -36 56 -42 82 -24
12 9 30 13 41 9 11 -4 20 -2 20 3 0 5 14 15 31 22 18 8 28 18 25 26 -3 8 1 14
9 14 8 0 15 7 15 15 0 8 7 15 15 15 8 0 15 -6 15 -12 0 -15 -68 -81 -94 -91
-11 -4 -16 -15 -14 -29 4 -30 44 -37 63 -11 13 17 15 16 39 -10 34 -36 102
-39 134 -4 12 13 22 27 22 31 0 4 11 22 24 39 13 18 27 42 30 54 4 12 25 55
47 94 21 39 39 78 39 85 0 7 11 30 25 50 13 20 27 51 31 70 3 19 10 37 15 40
14 8 11 24 -5 24 -8 0 -21 -6 -28 -13z m0 -39 c-3 -7 -13 -15 -24 -17 -16 -3
-17 -1 -5 13 16 19 34 21 29 4z m-124 -184 c10 -26 7 -34 -12 -34 -21 0 -42
18 -42 37 0 19 47 16 54 -3z m-90 -40 c20 -7 21 -20 3 -27 -19 -7 -41 8 -33
22 8 13 9 13 30 5z m74 -47 c3 -14 -1 -18 -20 -15 -12 2 -24 11 -26 21 -3 14
1 18 20 15 12 -2 24 -11 26 -21z m-43 -27 c3 -5 1 -10 -4 -10 -6 0 -11 5 -11
10 0 6 2 10 4 10 3 0 8 -4 11 -10z"/>
<path d="M1155 1621 c-4 -23 -2 -48 4 -60 9 -16 7 -23 -15 -40 -19 -15 -25
-27 -21 -42 5 -17 2 -20 -14 -16 -16 4 -25 -6 -49 -58 -17 -35 -30 -70 -30
-78 0 -7 -6 -19 -12 -26 -9 -9 -10 -15 -2 -18 12 -4 -33 -103 -47 -103 -18 0
-9 -49 9 -54 28 -9 300 -11 308 -3 4 4 20 7 36 7 20 0 40 12 66 37 20 21 40
38 45 39 4 1 12 2 17 3 19 2 11 45 -23 118 -8 18 -13 20 -24 12 -9 -8 -13 -8
-13 0 0 16 -30 14 -36 -3 -7 -19 26 -76 44 -76 23 0 7 -23 -21 -31 -22 -6 -28
-3 -41 26 -9 18 -16 41 -16 50 0 11 -5 15 -14 12 -8 -3 -21 2 -29 11 -15 17
-47 76 -47 87 0 12 28 4 34 -10 3 -8 10 -15 17 -15 7 0 8 7 4 18 -18 43 -26
115 -14 123 15 9 20 47 7 55 -4 3 -11 -3 -15 -13 -8 -23 -33 -53 -45 -53 -16
0 -8 47 12 65 13 12 20 29 18 44 -3 23 -8 26 -45 29 -41 3 -41 3 -48 -37z m45
-137 c0 -8 -5 -12 -10 -9 -6 4 -8 11 -5 16 9 14 15 11 15 -7z m-88 -116 c-7
-7 -12 -8 -12 -2 0 14 12 26 19 19 2 -3 -1 -11 -7 -17z m93 -36 c-8 -31 3 -62
21 -62 8 0 14 -6 15 -12 0 -7 2 -22 4 -34 3 -11 0 -33 -4 -50 -5 -16 -10 -23
-10 -16 -2 26 -53 122 -62 117 -5 -4 -9 -20 -9 -36 0 -18 -4 -28 -10 -24 -16
10 -24 -25 -13 -56 16 -42 -6 -43 -34 -2 -28 42 -29 59 -3 66 11 3 20 12 20
21 0 9 5 16 10 16 6 0 10 11 10 24 0 13 7 29 15 36 9 7 13 20 10 28 -8 23 4
33 26 19 14 -8 18 -19 14 -35z m-95 -34 c0 -8 -43 -28 -61 -28 -5 0 -9 13 -9
29 0 23 5 30 23 33 21 4 47 -15 47 -34z m-90 -128 c-6 -11 -13 -20 -15 -20 -2
0 -3 9 -2 20 1 11 7 20 14 20 11 0 11 -5 3 -20z"/>
<path d="M1288 1483 c7 -3 16 -2 19 1 4 3 -2 6 -13 5 -11 0 -14 -3 -6 -6z"/>
<path d="M1330 1434 c0 -14 -4 -33 -9 -43 -5 -9 -6 -23 -1 -31 7 -11 10 -11
22 1 25 25 28 59 7 80 -19 19 -19 19 -19 -7z"/>
<path d="M3040 1151 c11 -22 30 -37 30 -24 -1 11 -26 43 -34 43 -4 0 -2 -9 4
-19z"/>
<path d="M3040 1024 c0 -15 27 -50 34 -43 4 3 -2 17 -13 30 -11 13 -20 19 -21
13z"/>
<path d="M3010 995 c-10 -12 -10 -15 4 -15 9 0 16 7 16 15 0 8 -2 15 -4 15 -2
0 -9 -7 -16 -15z"/>
</g>
</svg>
